<?xml version="1.0" encoding="utf-8"?>
<!-- Generator: Adobe Illustrator 24.0.1, SVG Export Plug-In . SVG Version: 6.00 Build 0)  -->
<svg version="1.1" id="Layer_1" xmlns="http://www.w3.org/2000/svg" xmlns:xlink="http://www.w3.org/1999/xlink" x="0px" y="0px"
	 viewBox="0 0 1080 1080" style="enable-background:new 0 0 1080 1080;" xml:space="preserve">
<style type="text/css">
	.st0{fill:#204AB7;}
	.st1{fill:none;}
</style>
<g>
	<g>
		<path class="st0" d="M818.63,426.4c-11.84-7.76-24.15-14.82-36.26-22.19c-1.93-1.18-3.86-2.35-4.22-2.57
			c1.85-10.18,5.25-19.31,4.59-28.13c-0.57-7.74-4.71-15.76-8.98-22.59c-13.49-21.58-28.04-42.4-49.71-56.99
			c-1.23-0.83-1.63-4-1.28-5.87c3.21-17.09-1.04-31.89-13.23-44.27c-10.74-10.91-24.15-17.74-37.87-23.93
			c-22.1-9.97-42.73-9.61-60.83,10.16c-3.02-4.52-5.47-8.46-8.18-12.22c-15.42-21.39-33.98-38.6-61.28-42.58
			c-18.15-2.65-33.79,0.01-46.3,16.94c-27.29,36.94-56.43,72.5-84.59,108.81c-3.02,3.9-5.62,4.78-10.02,3.02
			c-5.75-2.3-11.62-4.37-17.58-6.02c-12.1-3.35-29.5,5.34-34.69,17.01c-1.12,2.51-2.16,5.05-3.39,7.5
			c-30.72,61.49-61.41,122.98-92.3,184.39c-2.28,4.54-2.11,7.79,0.63,12.09c45.61,71.81,91.02,143.75,136.52,215.63
			c5.1,8.07,7.68,16.68,7.65,26.33c-0.13,55.06-0.07,110.13-0.06,165.19c0,11.16,1.3,12.49,12.27,12.49
			c99.54,0,199.07,0.01,298.61,0c10.74,0,12.46-1.73,12.46-12.54c0.01-55.7-0.06-111.4,0.13-167.09c0.01-4.25,1.14-8.81,2.92-12.7
			c11.44-24.99,23.31-49.78,34.84-74.73c13.04-28.22,26.18-56.41,31.53-87.42c0.93-5.39,1.3-11.11,3.43-16.03
			c8.96-20.75,18.67-41.17,27.75-61.87c5.17-11.78,10.7-23.56,14.24-35.87C840.75,451.86,834.62,436.89,818.63,426.4z
			 M716.33,304.75c4.45,3.58,8.81,6.51,12.49,10.14c14.53,14.34,26.36,30.75,36.84,48.26c6.24,10.41,5.12,20.27-0.84,29.84
			c-4.9,7.87-10.53,15.32-16.13,22.73c-18.36,24.29-36.7,48.61-55.44,72.6c-3.51,4.5-8.55,8.03-13.43,11.17
			c-4.87,3.13-10.63,3.2-15.74,0.27c-8.42-4.83-17.01-9.52-24.78-15.28c-11.85-8.78-13.23-21.87-10.91-34.99
			c1.44-8.11,4.31-16.55,8.7-23.46c24.6-38.71,49.87-77.01,74.92-115.43C713.15,308.87,714.46,307.27,716.33,304.75z M609.98,253.31
			c3.71-5.38,7.89-10.47,12.19-15.4c9.38-10.74,21.61-14.27,34.43-9.03c13.57,5.55,27.06,12.23,38.96,20.69
			c17.16,12.21,19.43,31.5,7.84,49.37c-27.5,42.4-55.07,84.75-83.15,127.95c-29.72-19.43-59.05-38.6-88.91-58.11
			c8.72-12.87,17.18-25.41,25.7-37.93C574.65,304.99,592.23,279.09,609.98,253.31z M453.49,267.72
			c18.23-23.36,36.85-46.43,54.55-70.2c8.1-10.88,18.92-10.28,29.67-9.22c16.45,1.62,30.09,9.96,41.11,21.93
			c6.84,7.43,13.01,15.66,18.24,24.28c1.94,3.2,2.08,9.71,0.06,12.74c-25.19,37.86-50.92,75.35-76.53,112.93
			c-0.22,0.33-0.63,0.52-1.55,1.25c-31.9-18.25-63.63-36.39-95.87-54.83C433.52,293.33,443.49,280.52,453.49,267.72z M542.12,677.55
			c-3.94-0.09-7.54,0.36-7.9,5.15c-0.37,4.94,3.03,6.5,7.28,6.86c0.84,0.07,1.67,0.2,3.02,0.36c0,78.23,0,156.42,0,235.04
			c-44.06,0-87.96,0-131.1,0c0.45-5.28,1.27-10.42,1.28-15.56c0.1-50.18-0.03-100.36,0.17-150.55c0.02-5.81-1.49-10.57-4.54-15.38
			c-47.55-75.07-94.95-150.23-142.55-225.26c-2.61-4.11-2.7-7.13-0.56-11.4c30.31-60.26,60.43-120.62,90.61-180.95
			c0.57-1.13,1.39-2.2,1.71-3.39c5.21-19.48,27.97-24.79,44.76-13.09c35.82,24.94,75.59,42.92,112.26,66.22
			c32.14,20.42,63.89,41.46,95.82,62.21c7.06,4.59,2.71,10.66,0.94,15.11c-9.14,22.99-31.09,34.74-55.71,30.95
			c-29.98-4.62-57.76-15.98-85.29-27.96c-16.47-7.16-32.51-15.29-48.83-22.81c-2.08-0.96-4.71-0.66-7.02-1.22
			c-1.9-0.46-4.17-0.85-5.45-2.11c-6.36-6.27-12.46-12.82-18.73-19.36c1.17,11.68,9.58,18.85,18,26.61
			c-1.93,3.45-3.64,7.02-5.81,10.29c-5.76,8.67-6.43,16.07,0.5,23.79c5.82,6.49,12.82,12.45,20.35,16.82
			c58.59,34.02,98.6,84.19,126.19,144.96c5.17,11.39,7.36,24.16,10.71,36.35c0.65,2.36,0.32,4.98,0.49,8.35
			C555.19,677.59,548.65,677.69,542.12,677.55z M758.83,637.35c-15.76,35.55-32.47,70.67-48.55,106.08
			c-1.85,4.07-3.03,8.85-3.05,13.3c-0.21,53.35-0.13,106.7-0.15,160.04c0,2.7-0.28,5.4-0.44,8.33c-42.17,0-83.82,0-126.05,0
			c0-78.3,0-156.48,0-234.97c2.09-0.37,4.66-0.08,6.01-1.23c1.96-1.67,4.1-4.37,4.11-6.63c0-1.55-3.35-4.17-5.46-4.46
			c-4.94-0.66-10.03-0.21-15.44-0.21c0-7.8,0.19-14.94-0.03-22.06c-0.98-31.22-13.73-58.15-31.34-83.01
			c-25.83-36.48-58.41-65.53-97.6-87.25c-8.02-4.45-15.47-10.32-22.19-16.6c-5.5-5.14-7.48-12.17-3.73-19.75
			c2.18-4.41,4.6-5.29,9.51-3.1c29.52,13.13,58.99,26.43,88.99,38.38c13.21,5.26,27.51,8.11,41.54,10.95
			c23.29,4.71,42.37-3.43,57.74-21.08c0.68-0.78,1.2-1.71,2.37-3.4c9.19,24.26,36.2,43.63,60.48,44.81
			c-1.2,13.07-3.35,26.16-3.4,39.25c-0.11,27.11,15.08,47.97,38.8,54.92c19.79,5.8,37.03-0.65,53.2-11.6
			c3.45-2.33,6.64-5.05,9.95-7.59c0.58,0.28,1.16,0.55,1.74,0.83C770.23,606.68,765.45,622.42,758.83,637.35z M822.14,468.1
			c-3.06,10.05-7.64,19.64-11.74,29.36c-7.15,16.93-14.2,33.91-21.74,50.67c-8.88,19.74-22.88,35.04-42.31,44.73
			c-28.8,14.37-56.36-0.88-60.18-32.92c-0.42-3.56-0.77-7.14-1.15-10.71c-0.2-0.06-0.41-0.13-0.61-0.19
			c2.08-10.76,4.03-21.54,6.35-32.25c0.56-2.57,1.97-5.15,3.58-7.28c23.62-31.2,47.38-62.29,70.97-93.52
			c2.41-3.19,4.32-3.77,7.77-1.63c12.56,7.82,25.47,15.08,37.86,23.15C822.81,445.25,826.31,454.39,822.14,468.1z"/>
		<path class="st0" d="M529.15,823.34c-1.88,0.02-3.77-0.51-5.64-0.87c-19.53-3.86-32.6-14.8-36.48-34.77
			c-1.8-9.28-2.17-18.85-3.06-28.3c-1.23-13.03-1.32-26.27-3.73-39.08c-5.33-28.39-24.45-43.53-51.98-42.76
			c-3.71,0.1-6.81,0.53-7.05,5.23c-0.24,4.7,2.5,6.28,6.57,6.77c15.52,1.89,22.9,7.43,25.32,22.7c2.07,13.04,1.62,26.48,2.21,39.75
			c0.69,15.79-0.54,31.93,2.31,47.32c6.58,35.41,41.61,61.61,77.33,58.82c0-9.56-0.2-18.84,0.09-28.09
			C535.18,825.57,533.88,823.28,529.15,823.34z"/>
		<path class="st0" d="M699.15,677.81c-12.31-0.87-24.06,1.22-34.29,8.7c-15.54,11.36-20.33,28.14-22.06,45.98
			c-1.47,15.14-1.35,30.42-2.72,45.57c-2.22,24.49-14.2,38.74-36.15,44c-4.24,1.02-8.6,1.54-13.07,2.33c0,11.43,0,22.37,0,34.53
			c4.85-0.62,9.03-0.95,13.13-1.72c21.27-4.01,39.96-12.51,52.51-31.16c12.92-19.2,15.12-40.84,14.21-63.22
			c-0.51-12.47-1.14-24.99-0.61-37.43c0.3-7.03,2.13-14.23,4.55-20.89c3.41-9.41,11.03-14.06,20.97-14.9
			c1.67-0.14,3.92,0.08,4.84-0.89c1.67-1.75,3.51-4.3,3.42-6.44C703.81,680.65,700.93,677.94,699.15,677.81z"/>
	</g>
	<path id="SVGID_x5F_1_x5F_" class="st1" d="M405.24,143.17C624.4,68.75,862.4,186.08,936.83,405.24S893.92,862.4,674.76,936.83
		S217.6,893.92,143.17,674.76S186.08,217.6,405.24,143.17z"/>
	<text>	<textPath  xlink:href="#SVGID_x5F_1_x5F_" startOffset="86.9613%">
<tspan  style="fill:#174EA1; font-family:'Montserrat-Medium'; font-size:70.0089px;">movimiento estudiantil por la psicología científica</tspan>	</textPath>
</text>
</g>
</svg>
