<?xml version="1.0" encoding="utf-8"?>
<!-- Generator: Adobe Illustrator 24.0.1, SVG Export Plug-In . SVG Version: 6.00 Build 0)  -->
<svg version="1.1" id="Layer_1" xmlns="http://www.w3.org/2000/svg" xmlns:xlink="http://www.w3.org/1999/xlink" x="0px" y="0px"
	 viewBox="0 0 800 800" style="enable-background:new 0 0 800 800;" xml:space="preserve">
<style type="text/css">
	.st0{fill:#004AAD;}
	.st1{fill:none;}
	.st2{display:none;}
</style>
<g>
	<g>
		<path class="st0" d="M659.91,278.7c-11.07-7.26-22.58-13.85-33.89-20.74c-1.8-1.1-3.61-2.2-3.95-2.4
			c1.73-9.52,4.9-18.05,4.29-26.29c-0.54-7.24-4.4-14.73-8.39-21.12c-12.61-20.17-26.21-39.64-46.46-53.27
			c-1.15-0.77-1.52-3.74-1.2-5.49c3-15.97-0.97-29.81-12.37-41.38c-10.04-10.2-22.57-16.58-35.4-22.37
			c-20.66-9.32-39.94-8.98-56.86,9.5c-2.82-4.23-5.12-7.91-7.65-11.43c-14.41-20-31.76-36.08-57.28-39.8
			c-16.97-2.47-31.58,0.01-43.27,15.84c-25.51,34.53-52.75,67.77-79.07,101.7c-2.82,3.64-5.25,4.47-9.36,2.82
			c-5.37-2.15-10.86-4.09-16.43-5.63c-11.31-3.13-27.58,5-32.43,15.9c-1.04,2.34-2.02,4.72-3.16,7.01
			c-28.72,57.47-57.4,114.96-86.27,172.35c-2.13,4.24-1.97,7.28,0.58,11.31c42.63,67.13,85.08,134.36,127.6,201.55
			c4.77,7.54,7.18,15.59,7.16,24.61c-0.13,51.47-0.06,102.94-0.06,154.4c0,10.43,1.21,11.67,11.47,11.67c93.04,0,186.07,0,279.11,0
			c10.04,0,11.64-1.62,11.64-11.72c0.01-52.06-0.06-104.12,0.12-156.19c0.01-3.98,1.06-8.24,2.73-11.87
			c10.69-23.36,21.79-46.53,32.57-69.85c12.18-26.38,24.47-52.73,29.47-81.71c0.87-5.04,1.22-10.38,3.2-14.98
			c8.38-19.39,17.45-38.48,25.94-57.83c4.84-11.01,10-22.03,13.32-33.53C680.58,302.49,674.86,288.5,659.91,278.7z M564.28,164.98
			c4.16,3.34,8.24,6.09,11.68,9.48c13.59,13.41,24.64,28.75,34.44,45.1c5.83,9.73,4.79,18.95-0.79,27.9
			c-4.58,7.36-9.84,14.32-15.07,21.24c-17.16,22.71-34.3,45.43-51.82,67.86c-3.28,4.2-7.99,7.51-12.55,10.44
			c-4.56,2.93-9.93,2.99-14.71,0.25c-7.87-4.51-15.9-8.9-23.16-14.28c-11.07-8.2-12.37-20.45-10.19-32.71
			c1.34-7.58,4.02-15.47,8.13-21.93c23-36.18,46.61-71.98,70.03-107.9C561.31,168.84,562.54,167.34,564.28,164.98z M464.89,116.9
			c3.46-5.03,7.37-9.79,11.39-14.39c8.77-10.04,20.2-13.34,32.18-8.44c12.68,5.18,25.29,11.43,36.42,19.34
			c16.04,11.41,18.16,29.44,7.33,46.14c-25.7,39.63-51.47,79.22-77.72,119.6c-27.78-18.16-55.2-36.08-83.11-54.32
			c8.15-12.03,16.06-23.76,24.02-35.45C431.86,165.21,448.29,141,464.89,116.9z M318.6,130.37c17.04-21.84,34.45-43.4,50.99-65.62
			c7.57-10.17,17.69-9.6,27.73-8.61c15.38,1.52,28.13,9.31,38.43,20.5c6.39,6.94,12.16,14.63,17.05,22.69
			c1.81,2.99,1.94,9.08,0.06,11.9c-23.55,35.39-47.6,70.43-71.54,105.56c-0.21,0.3-0.59,0.49-1.45,1.16
			c-29.82-17.06-59.47-34.02-89.61-51.25C299.94,154.31,309.26,142.34,318.6,130.37z M401.45,513.45c-3.69-0.08-7.05,0.34-7.38,4.82
			c-0.35,4.62,2.83,6.08,6.81,6.41c0.78,0.07,1.56,0.18,2.82,0.34c0,73.12,0,146.21,0,219.7c-41.18,0-82.22,0-122.55,0
			c0.42-4.94,1.18-9.74,1.19-14.55c0.09-46.91-0.02-93.81,0.16-140.72c0.02-5.43-1.39-9.88-4.24-14.38
			c-44.44-70.17-88.75-140.42-133.25-210.55c-2.44-3.84-2.53-6.67-0.52-10.66c28.33-56.33,56.49-112.74,84.69-169.13
			c0.53-1.06,1.3-2.05,1.6-3.17c4.87-18.21,26.14-23.17,41.84-12.24c33.48,23.31,70.66,40.12,104.93,61.9
			c30.04,19.09,59.72,38.76,89.57,58.15c6.6,4.29,2.53,9.96,0.88,14.12c-8.54,21.49-29.06,32.48-52.08,28.93
			c-28.02-4.32-53.99-14.94-79.72-26.13c-15.39-6.7-30.39-14.3-45.64-21.32c-1.95-0.9-4.41-0.61-6.56-1.14
			c-1.77-0.43-3.9-0.8-5.1-1.97c-5.95-5.86-11.64-11.99-17.51-18.1c1.09,10.92,8.95,17.62,16.82,24.88c-1.8,3.22-3.4,6.57-5.43,9.62
			c-5.38,8.11-6.01,15.02,0.47,22.24c5.44,6.07,11.98,11.63,19.02,15.72c54.76,31.8,92.17,78.69,117.95,135.5
			c4.84,10.65,6.88,22.58,10.01,33.98c0.61,2.2,0.3,4.66,0.46,7.81C413.67,513.48,407.56,513.58,401.45,513.45z M604.02,475.87
			c-14.73,33.23-30.35,66.06-45.38,99.15c-1.73,3.81-2.84,8.27-2.85,12.43c-0.19,49.86-0.12,99.73-0.14,149.6
			c0,2.52-0.26,5.05-0.42,7.79c-39.41,0-78.34,0-117.82,0c0-73.19,0-146.27,0-219.63c1.95-0.34,4.36-0.07,5.62-1.15
			c1.83-1.56,3.83-4.08,3.84-6.2c0-1.45-3.13-3.9-5.1-4.16c-4.62-0.62-9.37-0.2-14.43-0.2c0-7.29,0.18-13.96-0.03-20.62
			c-0.91-29.19-12.84-54.36-29.29-77.59c-24.15-34.1-54.59-61.25-91.23-81.56c-7.5-4.16-14.46-9.65-20.74-15.51
			c-5.14-4.8-6.99-11.37-3.49-18.46c2.04-4.12,4.3-4.94,8.89-2.9c27.59,12.27,55.14,24.71,83.18,35.88
			c12.35,4.92,25.71,7.58,38.83,10.23c21.77,4.4,39.61-3.2,53.97-19.7c0.64-0.73,1.12-1.6,2.22-3.18
			c8.59,22.67,33.83,40.78,56.53,41.89c-1.12,12.22-3.13,24.45-3.17,36.69c-0.1,25.34,14.1,44.84,36.27,51.33
			c18.5,5.42,34.62-0.61,49.73-10.84c3.22-2.18,6.2-4.72,9.3-7.09c0.54,0.26,1.09,0.52,1.63,0.78
			C614.67,447.2,610.2,461.92,604.02,475.87z M663.19,317.67c-2.86,9.39-7.14,18.36-10.98,27.44c-6.68,15.83-13.28,31.7-20.33,47.36
			c-8.3,18.45-21.39,32.75-39.55,41.81c-26.92,13.43-52.68-0.82-56.25-30.77c-0.4-3.33-0.72-6.67-1.07-10.01
			c-0.19-0.06-0.38-0.12-0.57-0.18c1.95-10.06,3.77-20.14,5.93-30.15c0.52-2.41,1.84-4.82,3.35-6.81
			c22.08-29.16,44.29-58.23,66.33-87.42c2.25-2.98,4.04-3.52,7.26-1.52c11.74,7.31,23.81,14.09,35.39,21.64
			C663.81,296.32,667.09,304.86,663.19,317.67z"/>
		<path class="st0" d="M389.33,649.72c-1.75,0.02-3.52-0.47-5.27-0.82c-18.25-3.6-30.48-13.83-34.1-32.5
			c-1.68-8.68-2.03-17.62-2.86-26.46c-1.15-12.18-1.23-24.56-3.48-36.53c-4.99-26.53-22.85-40.68-48.59-39.97
			c-3.47,0.1-6.37,0.49-6.59,4.89c-0.22,4.39,2.33,5.87,6.14,6.33c14.5,1.76,21.4,6.94,23.67,21.22
			c1.94,12.19,1.52,24.75,2.06,37.15c0.65,14.76-0.51,29.85,2.16,44.23c6.15,33.1,38.9,57.58,72.28,54.98
			c0-8.94-0.19-17.61,0.08-26.26C394.97,651.81,393.74,649.67,389.33,649.72z"/>
		<path class="st0" d="M548.23,513.69c-11.5-0.82-22.49,1.14-32.05,8.13c-14.52,10.61-19,26.3-20.62,42.98
			c-1.37,14.15-1.26,28.44-2.54,42.6c-2.08,22.89-13.27,36.22-33.79,41.13c-3.96,0.95-8.03,1.44-12.22,2.18c0,10.68,0,20.91,0,32.28
			c4.53-0.58,8.44-0.89,12.27-1.61c19.88-3.74,37.36-11.7,49.08-29.13c12.07-17.95,14.13-38.18,13.28-59.09
			c-0.48-11.66-1.07-23.35-0.57-34.99c0.28-6.57,1.99-13.3,4.25-19.53c3.19-8.8,10.31-13.14,19.6-13.93
			c1.56-0.13,3.67,0.07,4.53-0.83c1.56-1.63,3.28-4.02,3.2-6.02C552.59,516.35,549.89,513.81,548.23,513.69z"/>
	</g>
</g>
<path id="SVGID_x5F_1_x5F_" class="st1" d="M273.31,102.91c172.92-69.97,369.81,13.49,439.78,186.41S699.6,659.12,526.69,729.09
	S156.88,715.6,86.91,542.69S100.4,172.88,273.31,102.91z"/>
<text class="st2"><textPath  xlink:href="#SVGID_x5F_1_x5F_" startOffset="86.9613%"  style="display:inline;">
<tspan  class="st0" style="font-family:'Montserrat-Bold'; font-size:56.4217px;">movimiento estudiantil por la psicología científica</tspan></textPath>
</text>
</svg>
